
<svg width="192px" height="139px" viewBox="0 0 192 139" version="1.1" xmlns="http://www.w3.org/2000/svg" xmlns:xlink="http://www.w3.org/1999/xlink">
    <!-- Generator: Sketch 50.2 (55047) - http://www.bohemiancoding.com/sketch -->
    <desc>Created with Sketch.</desc>
    <defs></defs>
    <g id="Page-1" stroke="none" stroke-width="1" fill="none" fill-rule="evenodd">
        <g id="login-1" transform="translate(-864.000000, -127.000000)">
            <g id="Group-64" transform="translate(671.000000, 127.000000)">
                <g id="Group-62" transform="translate(193.000000, 0.000000)">
                    <polygon id="Fill-2" fill="#F8A454" points="142.9668 36.1631 191.0308 74.0311 173.6388 87.8091 142.9478 62.2341"></polygon>
                    <polygon id="Fill-4" fill="#F1682C" points="116.9248 56.9922 142.9668 36.1632 142.9478 62.2342 128.0528 73.5472"></polygon>
                    <polygon id="Fill-6" fill="#3BA6C2" points="191.0264 39.0352 143.0204 0.0392 143.0204 26.7402 190.8264 65.7752"></polygon>
                    <polygon id="Fill-8" fill="#2088A0" points="95.0142 38 143.0202 0.039 143.0202 26.74 106.6492 55.528"></polygon>
                    <polygon id="Fill-10" fill="#3BA6C2" points="95.0142 38 142.0682 76.692 142.0682 102.889 95.2172 66.029"></polygon>
                    <polygon id="Fill-12" fill="#2088A0" points="142.0684 76.6919 168.0224 56.0119 168.0224 83.1059 142.0684 102.8889"></polygon>
                    <polygon id="Fill-14" fill="#F1682C" points="191.0313 74.0308 191.0313 99.9288 142.8853 138.7088 142.8853 112.1728"></polygon>
                    <polygon id="Fill-16" fill="#F8A454" points="142.8848 112.1729 95.1908 74.8699 95.1908 101.4229 142.8848 138.7089"></polygon>
                    <path d="M11.3325,41.6279 L9.3865,43.5749 L7.3775,41.5759 L9.3655,39.5779 L11.3325,41.5449 L13.2795,39.5989 L15.2875,41.5969 L13.2995,43.5949 L11.3325,41.6279 Z M18.4455,47.8509 C18.3145,47.3329 18.1215,46.8079 17.8655,46.2769 C17.6105,45.7449 17.3925,45.3359 17.2135,45.0499 C17.0335,44.7639 16.7405,44.3159 16.3335,43.7089 L18.8805,42.0529 C20.0195,43.8609 20.7405,45.5069 21.0435,46.9909 C21.0995,47.2599 21.1265,47.5469 21.1265,47.8509 L21.1265,47.9959 C21.0715,49.0509 20.4025,49.9519 19.1185,50.6979 C17.5855,51.5879 15.5085,52.1499 12.8855,52.3849 C12.1955,52.4469 11.5875,52.4789 11.0635,52.4789 C5.9905,52.4789 2.8535,51.2879 1.6525,48.9069 L1.6525,48.9169 C1.3205,48.2749 1.1555,47.5639 1.1555,46.7839 C1.1555,46.5219 1.1705,46.2649 1.2015,46.0129 C1.2325,45.7609 1.2845,45.5109 1.3575,45.2619 C1.4295,45.0139 1.4955,44.8009 1.5535,44.6259 C1.6125,44.4489 1.7055,44.2349 1.8335,43.9829 C1.9605,43.7319 2.0565,43.5469 2.1185,43.4299 C2.1805,43.3129 2.2875,43.1189 2.4385,42.8499 C2.5905,42.5809 2.6905,42.4049 2.7395,42.3219 L5.1725,44.3609 C4.6475,45.1069 4.2855,45.7969 4.0855,46.4319 C4.0025,46.6939 3.9605,46.9189 3.9605,47.1049 C3.9605,47.2359 3.9815,47.3499 4.0225,47.4469 C4.2855,47.9919 5.0755,48.4199 6.3945,48.7309 C7.6775,49.0339 9.2345,49.1859 11.0635,49.1859 C12.8645,49.1859 14.7255,48.9439 16.6445,48.4609 C17.2785,48.3029 17.8795,48.0989 18.4455,47.8509 Z" id="Fill-18" fill="#062F59"></path>
                    <path d="M26.3447,43.1396 C26.3447,43.5396 26.3137,44.1196 26.2517,44.8786 C26.1897,45.6386 26.1587,46.2116 26.1587,46.5976 C26.1587,47.3436 26.2617,48.0026 26.4697,48.5756 C26.5727,48.8376 26.7317,49.0066 26.9457,49.0826 C27.1597,49.1586 27.4877,49.1966 27.9287,49.1966 L28.0217,49.1966 C28.7057,49.1966 29.2097,49.5346 29.5337,50.2106 C29.6237,50.3976 29.6687,50.6076 29.6687,50.8426 C29.6687,51.3116 29.5117,51.7026 29.1977,52.0126 C28.8837,52.3236 28.4917,52.4786 28.0217,52.4786 C27.1527,52.4786 26.4227,52.3746 25.8327,52.1676 C25.2417,51.9606 24.7197,51.6366 24.2637,51.1946 C23.8777,50.8076 23.5997,50.3576 23.4307,49.8436 C23.2617,49.3286 23.1767,48.6886 23.1767,47.9226 L23.1767,47.7676 C23.2047,47.0296 23.2187,46.0976 23.2187,44.9726 C23.2187,42.1006 23.1497,39.8616 23.0117,38.2526 C22.9427,37.4666 22.8627,36.8416 22.7727,36.3786 L25.8687,35.4366 C25.9237,35.6996 25.9717,35.9856 26.0137,36.2966 C26.0547,36.6066 26.0917,36.8886 26.1227,37.1396 C26.1537,37.3916 26.1787,37.7146 26.1997,38.1076 C26.2207,38.5016 26.2377,38.8066 26.2517,39.0246 C26.2657,39.2416 26.2797,39.5816 26.2927,40.0436 C26.3067,40.5066 26.3137,40.8206 26.3137,40.9866 C26.3137,41.1516 26.3187,41.4906 26.3297,42.0006 C26.3397,42.5116 26.3447,42.8226 26.3447,42.9326 L26.3447,43.1396 Z" id="Fill-20" fill="#062F59"></path>
                    <path d="M26.314,50.8428 C26.314,50.3728 26.476,49.9838 26.8,49.6728 C27.125,49.3628 27.525,49.2068 28.001,49.2068 L38.286,49.2068 C38.976,49.2068 39.48,49.5378 39.797,50.2008 C39.887,50.3868 39.932,50.6008 39.932,50.8428 C39.932,51.3118 39.775,51.7018 39.461,52.0128 C39.147,52.3228 38.755,52.4788 38.286,52.4788 L27.991,52.4788 C27.632,52.4788 27.318,52.3838 27.049,52.1938 C26.78,52.0038 26.58,51.7678 26.449,51.4848 C26.359,51.2988 26.314,51.0838 26.314,50.8428" id="Fill-22" fill="#062F59"></path>
                    <path d="M47.0757,49.2275 C47.2137,49.2275 47.3207,49.1285 47.3967,48.9325 C47.4727,48.7355 47.5107,48.5235 47.5107,48.2955 C47.5107,48.2745 47.5087,48.2445 47.5057,48.2025 C47.5017,48.1615 47.5007,48.1295 47.5007,48.1095 C47.5007,47.6405 47.2757,47.1495 46.8267,46.6395 C46.3577,46.0935 45.8647,45.8215 45.3467,45.8215 C45.2497,45.8215 45.1257,45.9595 44.9737,46.2355 C44.8157,46.5255 44.5947,46.9355 44.3117,47.4675 L43.9907,48.1195 C44.7017,48.5685 45.5157,48.9035 46.4337,49.1235 C46.7097,49.1925 46.8927,49.2275 46.9827,49.2275 L47.0757,49.2275 Z M42.0757,50.8015 C41.4947,51.3395 40.9207,51.7535 40.3507,52.0435 C39.7817,52.3335 39.0897,52.4785 38.2757,52.4785 C37.7997,52.4785 37.4087,52.3245 37.1057,52.0175 C36.8017,51.7105 36.6497,51.3185 36.6497,50.8425 C36.6497,50.3735 36.8037,49.9885 37.1107,49.6875 C37.4177,49.3885 37.8027,49.2275 38.2647,49.2065 C39.0867,49.2065 39.7907,48.8825 40.3767,48.2335 C40.6737,47.9025 40.9757,47.4625 41.2837,46.9135 C41.5907,46.3645 41.8507,45.8675 42.0647,45.4225 C42.2787,44.9775 42.5707,44.5285 42.9397,44.0765 C43.3087,43.6245 43.7177,43.2845 44.1667,43.0575 C44.6287,42.8225 45.1227,42.7055 45.6467,42.7055 C46.8337,42.7055 47.8597,43.1985 48.7217,44.1855 C49.5227,45.1585 49.9227,46.3945 49.9227,47.8925 C49.9227,49.4515 49.4707,50.6395 48.5667,51.4535 C48.2147,51.7705 47.8627,52.0035 47.5107,52.1525 C47.1587,52.3005 46.7167,52.3745 46.1857,52.3745 C45.7227,52.3745 45.2537,52.3025 44.7777,52.1575 C44.3017,52.0125 43.9237,51.8675 43.6437,51.7225 C43.3647,51.5775 43.0137,51.3775 42.5927,51.1225 C42.3027,50.9425 42.1307,50.8355 42.0757,50.8015 Z" id="Fill-24" fill="#062F59"></path>
                    <path d="M59.8311,51.3291 C58.6851,52.0951 57.2701,52.4781 55.5861,52.4781 C53.6051,52.4781 51.9171,51.7501 50.5231,50.2941 L52.3971,47.6541 C52.9221,48.1371 53.4481,48.5101 53.9761,48.7721 C54.5041,49.0341 55.1271,49.1651 55.8451,49.1651 C56.7971,49.1651 57.5711,48.9411 58.1641,48.4921 C57.7911,47.5741 57.1961,46.2161 56.3781,44.4181 C55.5601,42.6201 54.9721,41.2831 54.6131,40.4061 L57.6361,39.1431 L58.5581,41.3801 C59.1441,42.8151 59.9761,44.8201 61.0531,47.3951 C61.0741,47.4431 61.1111,47.5381 61.1661,47.6801 C61.2221,47.8211 61.2601,47.9141 61.2811,47.9591 C61.3011,48.0041 61.3411,48.0871 61.3991,48.2071 C61.4581,48.3291 61.5031,48.4111 61.5341,48.4561 C61.5651,48.5011 61.6141,48.5701 61.6791,48.6631 C61.7451,48.7561 61.8071,48.8201 61.8661,48.8551 C61.9241,48.8891 61.9971,48.9361 62.0831,48.9951 C62.1691,49.0531 62.2571,49.0931 62.3471,49.1141 C62.4361,49.1341 62.5401,49.1551 62.6581,49.1761 C62.7751,49.1961 62.8991,49.2061 63.0301,49.2061 C63.3891,49.2061 63.6961,49.3001 63.9521,49.4861 C64.2071,49.6731 64.4041,49.9111 64.5421,50.2011 C64.6321,50.3871 64.6761,50.6011 64.6761,50.8431 C64.6761,51.3051 64.5191,51.6931 64.2061,52.0071 C63.8911,52.3211 63.4991,52.4781 63.0301,52.4781 C62.2921,52.4781 61.6701,52.3831 61.1661,52.1941 C60.6631,52.0041 60.2181,51.7161 59.8311,51.3291" id="Fill-26" fill="#062F59"></path>
                    <path d="M69.0972,40.748 L66.7992,38.45 L69.0972,36.151 L71.3962,38.45 L69.0972,40.748 Z M61.3632,50.843 C61.3632,50.366 61.5202,49.975 61.8342,49.667 C62.1482,49.36 62.5432,49.206 63.0202,49.206 L65.0082,49.206 C67.8862,49.206 70.5602,48.696 73.0322,47.674 C73.5912,47.44 74.3052,47.126 75.1752,46.732 C74.7122,46.601 74.0172,46.352 73.0882,45.987 C72.1602,45.621 71.4402,45.369 70.9302,45.231 C70.4402,45.1 69.9742,45.034 69.5322,45.034 C69.0002,45.034 68.4102,45.317 67.7622,45.883 C67.3342,46.263 67.0232,46.622 66.8302,46.96 L64.4382,45.417 C65.3492,43.775 66.5232,42.657 67.9582,42.063 C68.4552,41.856 68.9802,41.752 69.5322,41.752 C70.2432,41.752 71.0572,41.908 71.9752,42.218 C72.5002,42.391 73.1112,42.644 73.8082,42.979 C74.5052,43.314 75.1872,43.624 75.8532,43.911 C76.5192,44.197 77.1732,44.41 77.8152,44.548 C78.2012,44.63 78.6462,44.679 79.1502,44.693 L78.8912,47.871 L77.4212,48.575 C77.0492,48.755 76.5362,49.008 75.8842,49.336 C75.2322,49.664 74.6992,49.928 74.2842,50.128 C73.8702,50.329 73.3522,50.566 72.7312,50.843 C72.1102,51.119 71.5352,51.339 71.0072,51.505 C70.4792,51.671 69.8892,51.836 69.2372,52.002 C68.5852,52.168 67.9052,52.289 67.1972,52.365 C66.4902,52.44 65.7602,52.478 65.0082,52.478 L63.0202,52.478 C62.5432,52.478 62.1482,52.323 61.8342,52.013 C61.5202,51.702 61.3632,51.312 61.3632,50.843 Z" id="Fill-28" fill="#062F59"></path>
                    <path d="M10.3042,74.4009 C9.1582,75.1669 7.7432,75.5499 6.0592,75.5499 C4.0782,75.5499 2.3902,74.8219 0.9962,73.3659 L2.8702,70.7259 C3.3952,71.2089 3.9212,71.5819 4.4492,71.8439 C4.9772,72.1059 5.6002,72.2369 6.3182,72.2369 C7.2702,72.2369 8.0442,72.0129 8.6372,71.5639 C8.2642,70.6459 7.6692,69.2879 6.8512,67.4899 C6.0332,65.6919 5.4452,64.3549 5.0862,63.4779 L8.1092,62.2149 L9.0312,64.4509 C9.6172,65.8869 10.4492,67.8919 11.5262,70.4669 C11.5462,70.5149 11.5842,70.6099 11.6392,70.7519 C11.6952,70.8929 11.7332,70.9859 11.7542,71.0309 C11.7742,71.0759 11.8142,71.1589 11.8722,71.2789 C11.9312,71.4009 11.9762,71.4829 12.0072,71.5279 C12.0382,71.5729 12.0872,71.6419 12.1522,71.7349 C12.2182,71.8279 12.2802,71.8919 12.3392,71.9259 C12.3972,71.9609 12.4702,72.0069 12.5562,72.0669 C12.6422,72.1249 12.7302,72.1649 12.8202,72.1849 C12.9092,72.2059 13.0132,72.2269 13.1312,72.2479 C13.2482,72.2679 13.3722,72.2779 13.5032,72.2779 C13.8622,72.2779 14.1692,72.3719 14.4252,72.5579 C14.6802,72.7439 15.3192,72.9829 15.4562,73.2729 C15.5462,73.4589 15.5912,73.6729 15.5912,73.9139 C15.5912,74.3769 14.9922,74.7649 14.6792,75.0789 C14.3642,75.3929 13.9722,75.5499 13.5032,75.5499 C12.7642,75.5499 12.1432,75.4549 11.6392,75.2659 C11.1362,75.0759 10.6912,74.7879 10.3042,74.4009" id="Fill-30" fill="#062F59"></path>
                    <path d="M17.9932,65.6211 L15.6952,63.3231 L17.9932,61.0241 L20.2912,63.3231 L17.9932,65.6211 Z M18.3352,74.5041 C17.3822,75.2021 15.5362,75.5501 13.6792,75.5501 L13.5032,75.5501 C13.0272,75.5501 12.6352,75.3961 12.3282,75.0891 C12.0212,74.7821 11.8682,74.3911 11.8682,73.9141 C11.8682,73.4381 12.0212,73.0461 12.3282,72.7391 C12.6352,72.4321 13.0272,72.2781 13.5032,72.2781 L13.6792,72.2781 C15.6192,72.2781 17.0302,71.6571 17.0302,70.4151 L17.0302,70.0831 C17.0302,69.8761 16.9752,69.5451 16.8652,69.0901 C16.7892,68.7931 16.6922,68.4481 16.5752,68.0541 L19.5252,67.3401 C19.8912,68.3751 20.0742,69.4001 20.0742,70.4151 C20.0742,70.9191 20.1672,71.3551 20.3542,71.7251 C20.5402,72.0941 20.8332,72.2781 21.2342,72.2781 C21.9242,72.2781 22.4282,72.6101 22.7452,73.2721 C22.8352,73.4591 22.8802,73.6731 22.8802,73.9141 C22.8802,74.3841 22.7242,74.7731 22.4142,75.0841 C22.1032,75.3951 21.7132,75.5501 21.2442,75.5501 C20.0502,75.5501 19.0802,75.2021 18.3352,74.5041 Z" id="Fill-32" fill="#062F59"></path>
                    <path d="M29.3921,72.5371 C29.6001,72.5371 29.7671,72.4081 29.8941,72.1491 C30.0221,71.8901 30.0861,71.6161 30.0861,71.3261 C30.0861,70.9531 29.9271,70.5291 29.6101,70.0531 C29.1201,69.3071 28.5121,68.9341 27.7881,68.9341 C27.6701,68.9341 27.5181,69.1071 27.3321,69.4521 C27.2971,69.5071 27.1451,69.8081 26.8761,70.3521 L26.4411,71.2331 C27.2421,71.7851 28.0781,72.1891 28.9471,72.4441 C29.1401,72.5061 29.2881,72.5371 29.3921,72.5371 M24.5371,73.9141 C24.0951,74.4391 23.6391,74.8371 23.1701,75.1101 C22.7011,75.3831 22.0931,75.5291 21.3481,75.5501 L21.2131,75.5501 C20.7441,75.5501 20.3541,75.3981 20.0431,75.0951 C19.7321,74.7911 19.5771,74.4041 19.5771,73.9351 C19.5771,73.5761 19.6721,73.2671 19.8621,73.0081 C20.0521,72.7491 20.2911,72.5511 20.5811,72.4131 C20.7681,72.3231 20.9851,72.2781 21.2341,72.2781 C21.9311,72.2781 22.5561,71.9401 23.1081,71.2641 C23.3561,70.9671 23.6061,70.5861 23.8581,70.1201 C24.1101,69.6541 24.3241,69.2271 24.5001,68.8411 C24.6761,68.4541 24.9021,68.0511 25.1791,67.6301 C25.4541,67.2091 25.7451,66.8671 26.0481,66.6051 C26.6761,66.0661 27.3801,65.7971 28.1601,65.7971 L28.2641,65.7971 C28.6371,65.8251 28.9831,65.8921 29.3041,65.9991 C29.6251,66.1061 29.9011,66.2251 30.1321,66.3561 C30.3641,66.4871 30.5901,66.6721 30.8101,66.9101 C31.0321,67.1481 31.2111,67.3621 31.3491,67.5521 C31.4871,67.7421 31.6371,68.0011 31.7991,68.3291 C31.9611,68.6571 32.0861,68.9261 32.1721,69.1361 C32.2581,69.3471 32.3741,69.6411 32.5191,70.0211 C32.8851,70.9391 33.2951,71.5811 33.7511,71.9471 C34.0341,72.1681 34.3931,72.2781 34.8281,72.2781 C35.1861,72.2781 35.4961,72.3751 35.7541,72.5681 C36.0131,72.7621 36.2121,73.0031 36.3501,73.2931 C36.4391,73.4791 36.4841,73.6931 36.4841,73.9351 C36.4841,74.4041 36.3261,74.7911 36.0081,75.0951 C35.6901,75.3981 35.2971,75.5501 34.8281,75.5501 C34.1311,75.5501 33.5201,75.4131 32.9951,75.1411 C32.4711,74.8691 31.9771,74.5011 31.5151,74.0381 C30.8311,75.0051 29.9511,75.4881 28.8741,75.4881 C27.9291,75.4881 26.8631,75.1771 25.6751,74.5561 C25.1371,74.2801 24.7571,74.0661 24.5371,73.9141" id="Fill-34" fill="#062F59"></path>
                    <path d="M46.3613,59.958 L44.5183,61.801 L42.6653,59.948 L44.5083,58.105 L46.3613,59.958 Z M44.5083,62.981 L42.5613,64.928 L40.5533,62.929 L42.5413,60.931 L44.5083,62.898 L46.4543,60.952 L48.4633,62.95 L46.4753,64.948 L44.5083,62.981 Z M34.7973,75.561 C34.3553,75.54 33.9863,75.374 33.6893,75.063 C33.3923,74.753 33.2433,74.374 33.2433,73.925 C33.2433,73.262 33.5613,72.769 34.1963,72.444 C34.3963,72.341 34.5963,72.285 34.7973,72.278 C35.3283,72.278 35.7643,72.142 36.1063,71.87 C36.4483,71.597 36.7533,71.226 37.0233,70.756 C37.3883,70.108 37.7753,68.993 38.1823,67.413 L40.9363,67.909 C40.9083,68.041 40.8273,68.37 40.6933,68.898 C40.5583,69.426 40.4623,69.875 40.4033,70.244 C40.3443,70.613 40.3153,70.988 40.3153,71.367 C40.3153,72.044 40.5053,72.382 40.8843,72.382 C41.4363,72.382 41.9263,72.061 42.3543,71.419 C42.9343,70.529 43.3483,69.2 43.5973,67.433 L46.2273,67.878 C46.2133,68.106 46.1703,68.529 46.0973,69.146 C46.0253,69.764 45.9883,70.249 45.9883,70.601 C45.9883,71.802 46.3993,72.403 47.2203,72.403 C47.5523,72.403 47.8483,72.327 48.1113,72.175 C48.3733,72.023 48.5803,71.83 48.7323,71.595 C48.8363,71.43 48.8873,71.243 48.8873,71.036 C48.8873,70.442 48.6843,69.621 48.2773,68.572 C48.0693,68.041 47.7453,67.316 47.3033,66.398 L49.8713,64.958 C50.7473,66.871 51.2993,68.506 51.5283,69.866 C51.6033,70.335 51.6413,70.771 51.6413,71.171 C51.6413,72.634 51.2443,73.745 50.4513,74.504 C49.6573,75.264 48.5183,75.654 47.0343,75.674 C45.7433,75.674 44.7493,75.205 44.0523,74.266 C43.7073,74.722 43.2953,75.065 42.8153,75.296 C42.3363,75.528 41.7333,75.654 41.0083,75.674 L40.8843,75.674 C39.7803,75.674 38.8893,75.205 38.2133,74.266 C37.5093,75.129 36.4323,75.561 34.9833,75.561 L34.7973,75.561 Z" id="Fill-36" fill="#062F59"></path>
                    <path d="M57.5327,68.8203 C57.2087,68.8203 56.8697,69.0583 56.5177,69.5343 C56.1457,70.0253 55.9587,70.5043 55.9587,70.9743 C55.9587,71.2083 56.0197,71.4073 56.1397,71.5693 C56.2607,71.7313 56.4347,71.8563 56.6627,71.9423 C56.8907,72.0283 57.1067,72.0903 57.3097,72.1283 C57.5137,72.1663 57.7537,72.1993 58.0297,72.2263 C58.2787,72.2473 58.4157,72.2583 58.4437,72.2583 L59.3757,72.2583 C59.4787,72.2583 59.6207,72.2643 59.7997,72.2783 C59.6277,71.1673 59.1547,70.1663 58.3817,69.2763 C58.0777,68.9723 57.7947,68.8203 57.5327,68.8203 Z M52.4597,79.6603 C54.3237,79.2873 55.8967,78.7153 57.1807,77.9423 C58.3817,77.2103 59.1517,76.4133 59.4897,75.5503 C58.7437,75.5503 58.0747,75.5123 57.4807,75.4363 C56.8867,75.3603 56.3177,75.2243 55.7727,75.0273 C55.2277,74.8303 54.7757,74.5713 54.4167,74.2513 C54.0577,73.9293 53.7707,73.5143 53.5567,73.0033 C53.3437,72.4923 53.2357,71.8953 53.2357,71.2123 C53.2357,70.1423 53.5157,69.0693 54.0747,67.9923 C54.2617,67.6333 54.4407,67.3403 54.6127,67.1123 C55.4547,66.0633 56.4287,65.5383 57.5327,65.5383 C58.6997,65.5383 59.7517,66.0493 60.6907,67.0703 C61.9057,68.4163 62.5987,70.1533 62.7717,72.2783 L62.9687,72.2783 C63.6657,72.2783 64.1727,72.6103 64.4907,73.2723 C64.5797,73.4593 64.6247,73.6763 64.6247,73.9243 C64.6247,74.3943 64.4677,74.7823 64.1537,75.0893 C63.8397,75.3963 63.4447,75.5503 62.9687,75.5503 L62.5127,75.5503 C62.1057,77.0753 61.3637,78.3753 60.2867,79.4483 C59.2097,80.5213 57.9057,81.3653 56.3727,81.9793 C55.3927,82.3733 54.3437,82.6593 53.2257,82.8393 L52.4597,79.6603 Z" id="Fill-38" fill="#062F59"></path>
                    <path d="M73.2285,68.9238 C73.2285,69.7248 72.9695,70.6428 72.4515,71.6778 C72.3135,71.9538 72.1545,72.2268 71.9755,72.4958 L72.0685,72.4958 C72.3515,72.4958 72.5895,72.4938 72.7835,72.4908 C72.9765,72.4868 73.2075,72.4738 73.4765,72.4488 C73.7465,72.4248 73.9725,72.3928 74.1545,72.3508 C74.3375,72.3098 74.5295,72.2488 74.7295,72.1698 C74.9295,72.0908 75.0905,71.9938 75.2105,71.8798 C75.3315,71.7658 75.4315,71.6248 75.5115,71.4558 C75.5905,71.2858 75.6305,71.0948 75.6305,70.8808 C75.6305,70.7428 75.5785,70.5958 75.4755,70.4408 C75.3715,70.2858 75.2765,70.1698 75.1905,70.0938 C75.1035,70.0178 74.9845,69.9178 74.8325,69.7938 C74.3705,69.4138 73.8355,69.0548 73.2285,68.7168 L73.2285,68.9238 Z M68.3825,71.6368 C69.0665,71.5608 69.5905,71.3138 69.9565,70.8968 C70.3225,70.4788 70.5055,69.8968 70.5055,69.1518 C70.5055,68.7648 70.2885,68.3378 69.8535,67.8678 C69.5005,67.4818 69.1355,67.2608 68.7555,67.2058 C68.7495,67.2058 68.7315,67.2038 68.7045,67.1998 C68.6765,67.1968 68.6555,67.1948 68.6415,67.1948 C68.2345,67.1948 67.8065,67.4778 67.3575,68.0438 C66.9235,68.5828 66.7055,69.1108 66.7055,69.6278 C66.7055,70.0078 66.9165,70.4218 67.3375,70.8708 C67.6755,71.2368 68.0235,71.4918 68.3825,71.6368 Z M68.3315,74.9398 C66.8815,75.3468 65.0905,75.5498 62.9575,75.5498 L62.8645,75.5498 C62.3885,75.5498 61.9965,75.3948 61.6895,75.0848 C61.3825,74.7738 61.2285,74.3808 61.2285,73.9038 C61.2285,73.4348 61.3845,73.0468 61.6945,72.7388 C62.0055,72.4318 62.3955,72.2778 62.8645,72.2778 L63.2585,72.2778 C63.4445,72.2778 63.6985,72.2698 64.0195,72.2528 C64.3395,72.2358 64.5485,72.2228 64.6455,72.2158 C64.1555,71.3668 63.9105,70.4558 63.9105,69.4828 C63.9105,68.6748 64.0605,67.9458 64.3605,67.2938 C64.6615,66.6408 65.0665,66.0908 65.5775,65.6418 L65.0395,65.3418 L67.0375,62.4018 C67.4645,62.6978 67.9425,62.9778 68.4715,63.2398 C68.9995,63.5028 69.6655,63.8038 70.4695,64.1458 C71.2735,64.4878 71.7995,64.7168 72.0475,64.8348 C72.2275,64.9178 72.6005,65.0848 73.1665,65.3368 C73.7325,65.5888 74.1325,65.7728 74.3675,65.8908 C74.6025,66.0078 74.9245,66.1798 75.3355,66.4078 C75.7465,66.6358 76.0925,66.8688 76.3755,67.1068 C76.6585,67.3448 76.9245,67.6088 77.1725,67.8988 C77.8495,68.7478 78.1875,69.7658 78.1875,70.9528 C78.1875,71.8228 77.9715,72.5878 77.5405,73.2468 C77.1085,73.9058 76.5415,74.4458 75.8375,74.8668 C75.0015,75.3428 73.7845,75.5808 72.1825,75.5808 C70.6365,75.5808 69.3525,75.3668 68.3315,74.9398 Z" id="Fill-40" fill="#062F59"></path>
                    <path d="M7.8022,96.1855 C7.8022,95.7715 7.5502,95.2495 7.0462,94.6225 C6.5772,94.0285 6.0522,93.4415 5.4722,92.8615 C4.7062,93.7105 4.1782,94.5185 3.8882,95.2845 C3.7922,95.5465 3.7432,95.8165 3.7432,96.0925 L3.7432,96.1855 C3.7502,96.3515 3.8242,96.4995 3.9662,96.6305 C4.1082,96.7615 4.2872,96.8635 4.5042,96.9355 C4.7222,97.0085 4.9392,97.0615 5.1562,97.0965 C5.3742,97.1305 5.5862,97.1485 5.7932,97.1485 C6.6352,97.1485 7.2402,96.9785 7.6052,96.6415 C7.7372,96.5165 7.8022,96.3645 7.8022,96.1855 M5.7932,100.3995 C4.8752,100.3995 4.0452,100.2105 3.3032,99.8345 C2.5612,99.4585 1.9902,98.9705 1.5902,98.3705 C1.1762,97.7485 0.9692,97.0205 0.9692,96.1855 C0.9692,94.7985 1.5792,93.3655 2.8012,91.8885 C3.0222,91.6125 3.2162,91.3925 3.3812,91.2265 L3.5682,91.0395 C3.5402,91.0185 3.4712,90.9635 3.3602,90.8735 C3.2502,90.7845 3.1712,90.7155 3.1222,90.6665 L2.9362,90.5015 L4.9962,87.9855 C5.4722,88.3375 5.9292,88.7225 6.3682,89.1405 C6.8062,89.5575 7.3362,90.0945 7.9572,90.7495 C9.7452,92.7865 10.6392,94.5985 10.6392,96.1855 C10.6392,96.8275 10.5282,97.4015 10.3072,97.9095 C10.0872,98.4165 9.7782,98.8395 9.3812,99.1775 C8.9842,99.5155 8.5292,99.7855 8.0142,99.9855 C7.5002,100.1855 6.9292,100.3165 6.3012,100.3785 C6.1632,100.3925 5.9932,100.3995 5.7932,100.3995" id="Fill-42" fill="#062F59"></path>
                    <path d="M20.6299,99.25 C19.4839,100.016 18.0689,100.399 16.3849,100.399 C14.4039,100.399 12.7159,99.671 11.3219,98.215 L13.1959,95.575 C13.7209,96.058 14.2469,96.431 14.7749,96.693 C15.3029,96.955 15.9259,97.086 16.6439,97.086 C17.5959,97.086 18.3699,96.862 18.9629,96.413 C18.5899,95.495 17.9949,94.137 17.1769,92.339 C16.3589,90.541 15.7709,89.204 15.4119,88.327 L18.4349,87.064 L19.3569,89.3 C19.9429,90.736 20.7749,92.741 21.8519,95.316 C21.8729,95.364 21.9099,95.459 21.9649,95.601 C22.0209,95.742 22.0589,95.835 22.0799,95.88 C22.0999,95.925 22.1399,96.008 22.1979,96.128 C22.2569,96.25 22.3019,96.332 22.3329,96.377 C22.3639,96.422 22.4129,96.491 22.4779,96.584 C22.5439,96.677 22.6059,96.741 22.6649,96.775 C22.7229,96.81 22.7959,96.856 22.8819,96.916 C22.9679,96.974 23.0559,97.014 23.1459,97.034 C23.2349,97.055 23.3389,97.076 23.4569,97.097 C23.5739,97.117 23.6979,97.127 23.8289,97.127 C24.1879,97.127 24.4949,97.221 24.7509,97.407 C25.0059,97.593 25.2029,97.832 25.3409,98.122 C25.4309,98.308 25.4749,98.522 25.4749,98.763 C25.4749,99.226 25.3179,99.614 25.0049,99.928 C24.6899,100.242 24.2979,100.399 23.8289,100.399 C23.0899,100.399 22.4689,100.304 21.9649,100.115 C21.4619,99.925 21.0169,99.637 20.6299,99.25" id="Fill-44" fill="#062F59"></path>
                    <path d="M22.1416,98.7632 C22.1416,98.2942 22.3036,97.9042 22.6276,97.5932 C22.9526,97.2832 23.3526,97.1272 23.8286,97.1272 L52.4626,97.1272 C53.1536,97.1272 53.6576,97.4592 53.9746,98.1212 C54.0646,98.3082 54.1096,98.5222 54.1096,98.7632 C54.1096,99.2332 53.9526,99.6222 53.6386,99.9332 C53.3246,100.2442 52.9326,100.3992 52.4626,100.3992 L23.8186,100.3992 C23.4596,100.3992 23.1456,100.3042 22.8766,100.1152 C22.6076,99.9252 22.4076,99.6882 22.2756,99.4052 C22.1866,99.2192 22.1416,99.0052 22.1416,98.7632" id="Fill-46" fill="#062F59"></path>
                    <path d="M56.501,90.4702 L54.202,88.1722 L56.501,85.8732 L58.799,88.1722 L56.501,90.4702 Z M56.842,99.3532 C55.89,100.0512 54.485,100.3992 52.628,100.3992 L52.453,100.3992 C51.977,100.3992 51.584,100.2452 51.277,99.9382 C50.97,99.6312 50.817,99.2402 50.817,98.7632 C50.817,98.2872 50.97,97.8952 51.277,97.5882 C51.584,97.2812 51.977,97.1272 52.453,97.1272 L52.628,97.1272 C54.568,97.1272 55.538,96.5062 55.538,95.2642 L55.538,94.9322 C55.538,94.7252 55.483,94.3942 55.372,93.9392 C55.296,93.6422 55.2,93.2972 55.083,92.9032 L58.033,92.1892 C58.399,93.2242 58.582,94.2492 58.582,95.2642 C58.582,95.7682 58.675,96.2042 58.861,96.5742 C59.048,96.9432 59.341,97.1272 59.741,97.1272 C60.432,97.1272 60.936,97.4592 61.253,98.1212 C61.343,98.3082 61.388,98.5222 61.388,98.7632 C61.388,99.2332 61.232,99.6222 60.922,99.9332 C60.611,100.2442 60.221,100.3992 59.752,100.3992 C58.558,100.3992 57.588,100.0512 56.842,99.3532 Z" id="Fill-48" fill="#062F59"></path>
                    <path d="M58.064,98.7632 C58.064,98.2942 58.227,97.9042 58.551,97.5932 C58.875,97.2832 59.275,97.1272 59.752,97.1272 L66.502,97.1272 C67.192,97.1272 67.696,97.4592 68.014,98.1212 C68.104,98.3082 68.148,98.5222 68.148,98.7632 C68.148,99.2332 67.991,99.6222 67.677,99.9332 C67.363,100.2442 66.972,100.3992 66.502,100.3992 L59.741,100.3992 C59.382,100.3992 59.068,100.3042 58.799,100.1152 C58.53,99.9252 58.33,99.6882 58.199,99.4052 C58.109,99.2192 58.064,99.0052 58.064,98.7632" id="Fill-50" fill="#062F59"></path>
                    <path d="M64.8042,98.7632 C64.8042,98.2942 64.9662,97.9042 65.2912,97.5932 C65.6152,97.2832 66.0152,97.1272 66.4912,97.1272 L65.8922,97.1272 C66.5832,97.1272 67.0862,97.4592 67.4042,98.1212 C67.4932,98.3082 67.5382,98.5222 67.5382,98.7632 C67.5382,99.2332 67.3822,99.6222 67.0682,99.9332 C66.7532,100.2442 66.3622,100.3992 65.8922,100.3992 L66.4812,100.3992 C66.1222,100.3992 65.8082,100.3042 65.5392,100.1152 C65.2702,99.9252 65.0702,99.6882 64.9392,99.4052 C64.8492,99.2192 64.8042,99.0052 64.8042,98.7632" id="Fill-52" fill="#062F59"></path>
                    <path d="M64.1948,98.7632 C64.1948,98.2942 64.3568,97.9042 64.6808,97.5932 C65.0058,97.2832 65.4058,97.1272 65.8818,97.1272 L64.2828,97.1272 C64.9728,97.1272 65.4768,97.4592 65.7948,98.1212 C65.8838,98.3082 65.9288,98.5222 65.9288,98.7632 C65.9288,99.2332 65.7718,99.6222 65.4578,99.9332 C65.1438,100.2442 64.7528,100.3992 64.2828,100.3992 L65.8718,100.3992 C65.5128,100.3992 65.1988,100.3042 64.9298,100.1152 C64.6608,99.9252 64.4608,99.6882 64.3288,99.4052 C64.2388,99.2192 64.1948,99.0052 64.1948,98.7632" id="Fill-54" fill="#062F59"></path>
                    <path d="M62.6006,99.9385 C62.2936,99.6315 62.1406,99.2395 62.1406,98.7635 C62.1406,98.2875 62.2936,97.8955 62.6006,97.5885 C62.9076,97.2815 63.2996,97.1275 63.7756,97.1275 L65.4216,97.1275 C66.6646,97.1275 67.6756,96.9825 68.4556,96.6925 C68.7046,96.6035 68.8886,96.4975 69.0096,96.3765 C69.1306,96.2565 69.1906,96.0675 69.1906,95.8125 C69.1906,95.5165 69.1186,95.1645 68.9736,94.7565 C68.8486,94.4045 68.7006,94.0425 68.5276,93.6695 C68.3556,93.2965 68.1396,92.8515 67.8806,92.3345 C67.6216,91.8165 67.4576,91.4845 67.3896,91.3395 L70.3396,89.8905 C71.0576,91.1255 71.5716,92.6135 71.8826,94.3535 C71.9786,94.8915 72.0276,95.3365 72.0276,95.6885 C72.0276,96.3855 71.9036,97.0235 71.6546,97.6045 C71.0746,98.8945 70.0746,99.7435 68.6526,100.1505 C67.9966,100.3165 67.1236,100.3995 66.0326,100.3995 L63.7756,100.3995 C63.2996,100.3995 62.9076,100.2455 62.6006,99.9385" id="Fill-56" fill="#062F59"></path>
                    <path d="M74.6572,100.4302 C74.8232,97.4622 74.9062,95.1532 74.9062,93.5042 C74.9062,90.1562 74.7402,87.4472 74.4082,85.3762 L74.2742,84.5382 L77.4942,83.4512 C77.5492,83.6442 77.5972,83.8632 77.6382,84.1082 C77.6802,84.3532 77.7092,84.5692 77.7272,84.7552 C77.7442,84.9422 77.7642,85.1902 77.7892,85.5012 C77.8132,85.8112 77.8352,86.0562 77.8562,86.2362 C78.0772,88.4652 78.1872,90.8952 78.1872,93.5242 C78.1872,95.6782 78.1222,97.8142 77.9902,99.9332 L74.6572,100.4302 Z M75.0092,81.8672 C74.8912,81.8672 74.7832,81.8772 74.6832,81.8982 C74.5832,81.9182 74.4932,81.9582 74.4132,82.0172 C74.3342,82.0762 74.2702,82.1242 74.2222,82.1612 C74.1742,82.2002 74.1202,82.2722 74.0622,82.3792 C74.0032,82.4862 73.9632,82.5602 73.9432,82.6022 C73.9222,82.6432 73.8842,82.7332 73.8282,82.8712 C73.7732,83.0092 73.7392,83.0952 73.7252,83.1302 L71.9962,82.5812 C71.9962,82.4912 72.0202,82.3882 72.0692,82.2702 C72.1172,82.1532 72.1792,82.0242 72.2552,81.8822 C72.3312,81.7412 72.3762,81.6492 72.3892,81.6082 C72.5692,81.2142 72.8402,80.8682 73.2022,80.5672 C73.5652,80.2672 73.9562,80.0722 74.3772,79.9822 C74.5222,79.9622 74.6092,79.9512 74.6362,79.9512 L74.8852,79.9512 C75.3612,79.9512 75.9032,80.0792 76.5102,80.3342 L76.8312,80.4902 C77.1692,80.6412 77.4142,80.7182 77.5662,80.7182 C77.6982,80.7182 77.8082,80.6902 77.8972,80.6352 C78.1872,80.4762 78.5152,80.1412 78.8812,79.6302 L80.4962,80.6762 C80.3442,80.9802 80.0542,81.3322 79.6262,81.7322 C78.9712,82.3602 78.2872,82.6742 77.5762,82.6742 L77.4312,82.6742 L76.8422,82.5392 C76.2272,82.2502 75.7642,82.0502 75.4542,81.9392 C75.3162,81.8912 75.1682,81.8672 75.0092,81.8672 Z" id="Fill-58" fill="#062F59"></path>
                    <polygon id="Fill-60" fill="#062F59" points="64.6392 103.8877 62.6932 105.8337 60.6842 103.8357 62.6722 101.8377 64.6392 103.8047 66.5862 101.8587 68.5942 103.8567 66.6062 105.8547"></polygon>
                </g>
            </g>
        </g>
    </g>
</svg>