<?xml version="1.0" encoding="utf-8"?>
<!-- Generator: Adobe Illustrator 22.1.0, SVG Export Plug-In . SVG Version: 6.00 Build 0)  -->
<svg version="1.1" id="Layer_1" xmlns="http://www.w3.org/2000/svg" xmlns:xlink="http://www.w3.org/1999/xlink" x="0px" y="0px"
	 viewBox="0 0 235.9 161.7" style="enable-background:new 0 0 235.9 161.7;" xml:space="preserve" width="190" height="140">
<style type="text/css">
	.st0{fill:#DDDDDD;}
	.st1{fill:#CCCCCC;}
	.st2{fill:#C1C0C0;}
	.st3{fill:#A4A4A5;}
</style>
<g>
	<g>
		<polygon class="st0" points="164.9,47.1 213,85 195.6,98.7 164.9,73.2 		"/>
		<polygon class="st1" points="138.9,67.9 164.9,47.1 164.9,73.2 150,84.5 		"/>
		<polygon class="st1" points="213,50 165,11 165,37.7 212.8,76.7 		"/>
		<polygon class="st2" points="117,48.9 165,11 165,37.7 128.6,66.5 		"/>
		<polygon class="st1" points="117,48.9 164,87.6 164,113.8 117.2,77 		"/>
		<polygon class="st2" points="164,87.6 190,66.9 190,94 164,113.8 		"/>
		<polygon class="st1" points="213,85 213,110.9 164.8,149.6 164.8,123.1 		"/>
		<polygon class="st0" points="164.8,123.1 117.1,85.8 117.1,112.3 164.8,149.6 		"/>
	</g>
	<g>
		<g>
			<g>
				<path class="st3" d="M40.4,58.8c-0.1-0.5-0.3-1-0.6-1.6s-0.5-0.9-0.7-1.2c-0.2-0.3-0.5-0.7-0.9-1.3l2.5-1.7
					c1.1,1.8,1.9,3.5,2.2,4.9c0.1,0.3,0.1,0.6,0.1,0.9v0.1c-0.1,1.1-0.7,2-2,2.7c-1.5,0.9-3.6,1.5-6.2,1.7c-0.7,0.1-1.3,0.1-1.8,0.1
					c-5.1,0-8.2-1.2-9.4-3.6v0c-0.3-0.6-0.5-1.4-0.5-2.1c0-0.3,0-0.5,0-0.8c0-0.3,0.1-0.5,0.2-0.8c0.1-0.2,0.1-0.5,0.2-0.6
					s0.2-0.4,0.3-0.6s0.2-0.4,0.3-0.6c0.1-0.1,0.2-0.3,0.3-0.6c0.2-0.3,0.3-0.4,0.3-0.5l2.4,2c-0.5,0.7-0.9,1.4-1.1,2.1
					c-0.1,0.3-0.1,0.5-0.1,0.7c0,0.1,0,0.2,0.1,0.3c0.3,0.5,1.1,1,2.4,1.3c1.3,0.3,2.8,0.5,4.7,0.5c1.8,0,3.7-0.2,5.6-0.7
					C39.2,59.2,39.8,59,40.4,58.8z M33.3,52.6l-1.9,1.9l-2-2l2-2L33.3,52.6l1.9-2l2,2l-2,2L33.3,52.6z"/>
				<path class="st3" d="M48.3,54.1c0,0.4,0,1-0.1,1.7c-0.1,0.8-0.1,1.3-0.1,1.7c0,0.7,0.1,1.4,0.3,2c0.1,0.3,0.3,0.4,0.5,0.5
					s0.5,0.1,1,0.1H50c0.7,0,1.2,0.3,1.5,1c0.1,0.2,0.1,0.4,0.1,0.6c0,0.5-0.2,0.9-0.5,1.2c-0.3,0.3-0.7,0.5-1.2,0.5
					c-0.9,0-1.6-0.1-2.2-0.3s-1.1-0.5-1.6-1c-0.4-0.4-0.7-0.8-0.8-1.4c-0.2-0.5-0.3-1.2-0.3-1.9v-0.2c0-0.7,0-1.7,0-2.8
					c0-2.9-0.1-5.1-0.2-6.7c-0.1-0.8-0.1-1.4-0.2-1.9l3.1-0.9c0.1,0.3,0.1,0.5,0.1,0.9c0,0.3,0.1,0.6,0.1,0.8s0.1,0.6,0.1,1
					c0,0.4,0,0.7,0.1,0.9c0,0.2,0,0.6,0,1s0,0.8,0,0.9s0,0.5,0,1c0,0.5,0,0.8,0,0.9V54.1z"/>
				<path class="st3" d="M48.3,61.8c0-0.5,0.2-0.9,0.5-1.2c0.3-0.3,0.7-0.5,1.2-0.5h10.3c0.7,0,1.2,0.3,1.5,1
					c0.1,0.2,0.1,0.4,0.1,0.6c0,0.5-0.2,0.9-0.5,1.2c-0.3,0.3-0.7,0.5-1.2,0.5H49.9c-0.4,0-0.7-0.1-0.9-0.3
					c-0.3-0.2-0.5-0.4-0.6-0.7C48.3,62.2,48.3,62,48.3,61.8z"/>
				<path class="st3" d="M64,61.7c-0.6,0.5-1.2,1-1.7,1.2c-0.6,0.3-1.3,0.4-2.1,0.4c-0.5,0-0.9-0.2-1.2-0.5
					c-0.3-0.3-0.5-0.7-0.5-1.2c0-0.5,0.2-0.9,0.5-1.2c0.3-0.3,0.7-0.5,1.2-0.5c0.8,0,1.5-0.3,2.1-1c0.3-0.3,0.6-0.8,0.9-1.3
					c0.3-0.5,0.6-1,0.8-1.5c0.2-0.4,0.5-0.9,0.9-1.3c0.4-0.5,0.8-0.8,1.2-1c0.5-0.2,1-0.4,1.5-0.4c1.2,0,2.2,0.5,3.1,1.5
					c0.8,1,1.2,2.2,1.2,3.7c0,1.6-0.5,2.7-1.4,3.6c-0.4,0.3-0.7,0.6-1.1,0.7c-0.4,0.1-0.8,0.2-1.3,0.2c-0.5,0-0.9-0.1-1.4-0.2
					c-0.5-0.1-0.9-0.3-1.1-0.4S65,62.3,64.5,62C64.3,61.9,64.1,61.8,64,61.7z M69,60.2c0.1,0,0.2-0.1,0.3-0.3s0.1-0.4,0.1-0.6
					c0,0,0-0.1,0-0.1c0,0,0-0.1,0-0.1c0-0.5-0.2-1-0.7-1.5c-0.5-0.5-1-0.8-1.5-0.8c-0.1,0-0.2,0.1-0.4,0.4c-0.2,0.3-0.4,0.7-0.7,1.2
					L65.9,59c0.7,0.4,1.5,0.8,2.4,1C68.7,60.1,68.8,60.2,69,60.2L69,60.2z"/>
				<path class="st3" d="M81.8,62.3c-1.1,0.8-2.6,1.1-4.2,1.1c-2,0-3.7-0.7-5.1-2.2l1.9-2.6c0.5,0.5,1.1,0.9,1.6,1.1
					c0.5,0.3,1.2,0.4,1.9,0.4c1,0,1.7-0.2,2.3-0.7c-0.4-0.9-1-2.3-1.8-4.1c-0.8-1.8-1.4-3.1-1.8-4l3-1.3l0.9,2.2
					c0.6,1.4,1.4,3.4,2.5,6c0,0,0.1,0.1,0.1,0.3c0.1,0.1,0.1,0.2,0.1,0.3c0,0,0.1,0.1,0.1,0.2c0.1,0.1,0.1,0.2,0.1,0.2
					s0.1,0.1,0.1,0.2c0.1,0.1,0.1,0.2,0.2,0.2s0.1,0.1,0.2,0.1c0.1,0.1,0.2,0.1,0.3,0.1s0.2,0,0.3,0.1c0.1,0,0.2,0,0.4,0
					c0.4,0,0.7,0.1,0.9,0.3c0.3,0.2,0.5,0.4,0.6,0.7c0.1,0.2,0.1,0.4,0.1,0.6c0,0.5-0.2,0.9-0.5,1.2c-0.3,0.3-0.7,0.5-1.2,0.5
					c-0.7,0-1.4-0.1-1.9-0.3S82.2,62.6,81.8,62.3z"/>
				<path class="st3" d="M83.3,61.8c0-0.5,0.2-0.9,0.5-1.2c0.3-0.3,0.7-0.5,1.2-0.5h2c2.9,0,5.6-0.5,8-1.5c0.6-0.2,1.3-0.5,2.1-0.9
					c-0.5-0.1-1.2-0.4-2.1-0.7s-1.6-0.6-2.2-0.8c-0.5-0.1-1-0.2-1.4-0.2c-0.5,0-1.1,0.3-1.8,0.8c-0.4,0.4-0.7,0.7-0.9,1.1l-2.4-1.5
					c0.9-1.6,2.1-2.8,3.5-3.4c0.5-0.2,1-0.3,1.6-0.3c0.7,0,1.5,0.2,2.4,0.5c0.5,0.2,1.1,0.4,1.8,0.8c0.7,0.3,1.4,0.6,2,0.9
					c0.7,0.3,1.3,0.5,2,0.6c0.4,0.1,0.8,0.1,1.3,0.1l-0.3,3.2l-1.5,0.7c-0.4,0.2-0.9,0.4-1.5,0.8c-0.7,0.3-1.2,0.6-1.6,0.8
					c-0.4,0.2-0.9,0.4-1.6,0.7s-1.2,0.5-1.7,0.7c-0.5,0.2-1.1,0.3-1.8,0.5s-1.3,0.3-2,0.4c-0.7,0.1-1.4,0.1-2.2,0.1h-2
					c-0.5,0-0.9-0.2-1.2-0.5C83.5,62.6,83.3,62.2,83.3,61.8z M91,51.7l-2.3-2.3l2.3-2.3l2.3,2.3L91,51.7z"/>
			</g>
			<g>
				<path class="st3" d="M32.3,85.3c-1.1,0.8-2.6,1.1-4.2,1.1c-2,0-3.7-0.7-5.1-2.2l1.9-2.6c0.5,0.5,1.1,0.9,1.6,1.1
					c0.5,0.3,1.2,0.4,1.9,0.4c1,0,1.7-0.2,2.3-0.7c-0.4-0.9-1-2.3-1.8-4.1c-0.8-1.8-1.4-3.1-1.8-4l3-1.3l0.9,2.2
					c0.6,1.4,1.4,3.4,2.5,6c0,0,0.1,0.1,0.1,0.3s0.1,0.2,0.1,0.3c0,0,0.1,0.1,0.1,0.2s0.1,0.2,0.1,0.2c0,0,0.1,0.1,0.1,0.2
					s0.1,0.2,0.2,0.2c0.1,0,0.1,0.1,0.2,0.1c0.1,0.1,0.2,0.1,0.3,0.1s0.2,0,0.3,0.1s0.2,0,0.4,0c0.4,0,0.7,0.1,0.9,0.3
					s0.9,0.4,1,0.7c0.1,0.2,0.1,0.4,0.1,0.6c0,0.5-0.6,0.9-0.9,1.2c-0.3,0.3-0.7,0.5-1.2,0.5c-0.7,0-1.4-0.1-1.9-0.3
					C33.1,86,32.6,85.7,32.3,85.3z"/>
				<path class="st3" d="M40.3,85.4c-1,0.7-2.8,1-4.7,1h-0.2c-0.5,0-0.9-0.2-1.2-0.5c-0.3-0.3-0.5-0.7-0.5-1.2
					c0-0.5,0.2-0.9,0.5-1.2s0.7-0.5,1.2-0.5h0.2c1.9,0,3.4-0.6,3.4-1.9V81c0-0.2-0.1-0.5-0.2-1c-0.1-0.3-0.2-0.6-0.3-1l3-0.7
					c0.4,1,0.5,2.1,0.5,3.1c0,0.5,0.1,0.9,0.3,1.3s0.5,0.6,0.9,0.6c0.7,0,1.2,0.3,1.5,1c0.1,0.2,0.1,0.4,0.1,0.6
					c0,0.5-0.2,0.9-0.5,1.2s-0.7,0.5-1.2,0.5C42,86.5,41,86.1,40.3,85.4z M39.9,76.5l-2.3-2.3l2.3-2.3l2.3,2.3L39.9,76.5z"/>
				<path class="st3" d="M46.5,84.8c-0.4,0.5-0.9,0.9-1.4,1.2c-0.5,0.3-1.1,0.4-1.8,0.4h-0.1c-0.5,0-0.9-0.2-1.2-0.5
					s-0.5-0.7-0.5-1.2c0-0.4,0.1-0.7,0.3-0.9c0.2-0.3,0.4-0.5,0.7-0.6c0.2-0.1,0.4-0.1,0.7-0.1c0.7,0,1.3-0.3,1.9-1
					c0.2-0.3,0.5-0.7,0.8-1.1c0.3-0.5,0.5-0.9,0.6-1.3c0.2-0.4,0.4-0.8,0.7-1.2s0.6-0.8,0.9-1c0.6-0.5,1.3-0.8,2.1-0.8h0.1
					c0.4,0,0.7,0.1,1,0.2s0.6,0.2,0.8,0.4c0.2,0.1,0.5,0.3,0.7,0.6c0.2,0.2,0.4,0.5,0.5,0.6c0.1,0.2,0.3,0.4,0.5,0.8
					c0.2,0.3,0.3,0.6,0.4,0.8s0.2,0.5,0.3,0.9c0.4,0.9,0.8,1.6,1.2,1.9c0.3,0.2,0.6,0.3,1.1,0.3c0.4,0,0.7,0.1,0.9,0.3
					c0.3,0.2,0.5,0.4,0.6,0.7c0.1,0.2,0.1,0.4,0.1,0.6c0,0.5-0.2,0.9-0.5,1.2c-0.3,0.3-0.7,0.5-1.2,0.5c-0.7,0-1.3-0.1-1.8-0.4
					c-0.5-0.3-1-0.6-1.5-1.1c-0.7,1-1.6,1.4-2.6,1.4c-0.9,0-2-0.3-3.2-0.9C47.1,85.2,46.7,85,46.5,84.8z M51.3,83.5
					c0.2,0,0.4-0.1,0.5-0.4c0.1-0.3,0.2-0.5,0.2-0.8c0-0.4-0.2-0.8-0.5-1.3c-0.5-0.7-1.1-1.1-1.8-1.1c-0.1,0-0.3,0.2-0.5,0.5
					c0,0.1-0.2,0.4-0.5,0.9l-0.4,0.9c0.8,0.6,1.6,1,2.5,1.2C51.1,83.4,51.2,83.5,51.3,83.5z"/>
				<path class="st3" d="M56.7,86.5c-0.4,0-0.8-0.2-1.1-0.5s-0.4-0.7-0.4-1.1c0-0.7,0.3-1.2,1-1.5c0.2-0.1,0.4-0.2,0.6-0.2
					c0.5,0,1-0.1,1.3-0.4c0.3-0.3,0.6-0.6,0.9-1.1c0.4-0.6,0.8-1.8,1.2-3.3l2.8,0.5c0,0.1-0.1,0.5-0.2,1s-0.2,1-0.3,1.3
					c-0.1,0.4-0.1,0.7-0.1,1.1c0,0.7,0.2,1,0.6,1c0.6,0,1-0.3,1.5-1c0.6-0.9,1-2.2,1.2-4l2.6,0.4c0,0.2-0.1,0.7-0.1,1.3
					c-0.1,0.6-0.1,1.1-0.1,1.5c0,1.2,0.4,1.8,1.2,1.8c0.3,0,0.6-0.1,0.9-0.2s0.5-0.3,0.6-0.6c0.1-0.2,0.2-0.4,0.2-0.6
					c0-0.6-0.2-1.4-0.6-2.5c-0.2-0.5-0.5-1.3-1-2.2l2.6-1.4c0.9,1.9,1.4,3.5,1.7,4.9c0.1,0.5,0.1,0.9,0.1,1.3c0,1.5-0.4,2.6-1.2,3.3
					c-0.8,0.8-1.9,1.1-3.4,1.2c-1.3,0-2.3-0.5-3-1.4c-0.3,0.5-0.8,0.8-1.2,1s-1.1,0.4-1.8,0.4h-0.1c-1.1,0-2-0.5-2.7-1.4
					c-0.7,0.9-1.8,1.3-3.2,1.3H56.7z M66.5,73.9l-1.9,1.9l-2-2l2-2L66.5,73.9l1.9-2l2,2l-2,2L66.5,73.9z M68.3,70.9l-1.8,1.8
					l-1.9-1.9l1.8-1.8L68.3,70.9z"/>
				<path class="st3" d="M74.4,90.6c1.9-0.4,3.4-0.9,4.7-1.7c1.2-0.7,2-1.5,2.3-2.4c-0.7,0-1.4,0-2-0.1c-0.6-0.1-1.2-0.2-1.7-0.4
					c-0.5-0.2-1-0.5-1.4-0.8s-0.6-0.7-0.9-1.2c-0.2-0.5-0.3-1.1-0.3-1.8c0-1.1,0.3-2.1,0.8-3.2c0.2-0.4,0.4-0.7,0.5-0.9
					c0.8-1,1.8-1.6,2.9-1.6c1.2,0,2.2,0.5,3.2,1.5c1.2,1.3,1.9,3.1,2.1,5.2h0.2c0.7,0,1.2,0.3,1.5,1c0.1,0.2,0.1,0.4,0.1,0.7
					c0,0.5-0.2,0.9-0.5,1.2c-0.3,0.3-0.7,0.5-1.2,0.5h-0.5c-0.4,1.5-1.1,2.8-2.2,3.9c-1.1,1.1-2.4,1.9-3.9,2.5c-1,0.4-2,0.7-3.1,0.9
					L74.4,90.6z M79.5,79.7c-0.3,0-0.7,0.2-1,0.7c-0.4,0.5-0.6,1-0.6,1.4c0,0.2,0.1,0.4,0.2,0.6s0.3,0.3,0.5,0.4
					c0.2,0.1,0.4,0.1,0.6,0.2c0.2,0,0.4,0.1,0.7,0.1c0.2,0,0.4,0,0.4,0h0.9c0.1,0,0.2,0,0.4,0c-0.2-1.1-0.6-2.1-1.4-3
					C80,79.9,79.7,79.7,79.5,79.7z"/>
				<path class="st3" d="M90.3,85.9c-1.4,0.4-3.2,0.6-5.4,0.6h-0.1c-0.5,0-0.9-0.2-1.2-0.5c-0.3-0.3-0.5-0.7-0.5-1.2
					c0-0.5,0.2-0.9,0.5-1.2s0.7-0.5,1.2-0.5h0.4c0.2,0,0.4,0,0.8,0c0.3,0,0.5,0,0.6,0c-0.5-0.8-0.7-1.8-0.7-2.7
					c0-0.8,0.2-1.5,0.5-2.2s0.7-1.2,1.2-1.7L87,76.3l2-2.9c0.4,0.3,0.9,0.6,1.4,0.8c0.5,0.3,1.2,0.6,2,0.9s1.3,0.6,1.6,0.7
					c0.2,0.1,0.6,0.3,1.1,0.5c0.6,0.3,1,0.4,1.2,0.6c0.2,0.1,0.6,0.3,1,0.5c0.4,0.2,0.8,0.5,1,0.7c0.3,0.2,0.5,0.5,0.8,0.8
					c0.7,0.8,1,1.9,1,3.1c0,0.9-0.2,1.6-0.6,2.3c-0.4,0.7-1,1.2-1.7,1.6c-0.8,0.5-2.1,0.7-3.7,0.7C92.6,86.5,91.3,86.3,90.3,85.9z
					 M90.3,82.6c0.7-0.1,1.2-0.3,1.6-0.7c0.4-0.4,0.5-1,0.5-1.7c0-0.4-0.2-0.8-0.7-1.3c-0.4-0.4-0.7-0.6-1.1-0.7c0,0,0,0-0.1,0
					c0,0,0,0-0.1,0c-0.4,0-0.8,0.3-1.3,0.8c-0.4,0.5-0.7,1.1-0.7,1.6c0,0.4,0.2,0.8,0.6,1.2C89.6,82.2,90,82.4,90.3,82.6z
					 M95.2,79.8c0,0.8-0.3,1.7-0.8,2.8c-0.1,0.3-0.3,0.5-0.5,0.8H94c0.3,0,0.5,0,0.7,0c0.2,0,0.4,0,0.7,0s0.5-0.1,0.7-0.1
					c0.2,0,0.4-0.1,0.6-0.2s0.4-0.2,0.5-0.3c0.1-0.1,0.2-0.3,0.3-0.4s0.1-0.4,0.1-0.6c0-0.1-0.1-0.3-0.2-0.4
					c-0.1-0.2-0.2-0.3-0.3-0.3c-0.1-0.1-0.2-0.2-0.4-0.3c-0.5-0.4-1-0.7-1.6-1.1V79.8z"/>
			</g>
			<g>
				<path class="st3" d="M27.7,111.3c-0.9,0-1.7-0.2-2.5-0.6c-0.7-0.4-1.3-0.9-1.7-1.5c-0.4-0.6-0.6-1.3-0.6-2.2
					c0-1.4,0.6-2.8,1.8-4.3c0.2-0.3,0.4-0.5,0.6-0.7l0.2-0.2c0,0-0.1-0.1-0.2-0.2c-0.1-0.1-0.2-0.2-0.2-0.2l-0.2-0.2l2.1-2.5
					c0.5,0.4,0.9,0.7,1.4,1.2c0.4,0.4,1,1,1.6,1.6c1.8,2,2.7,3.8,2.7,5.4c0,0.6-0.1,1.2-0.3,1.7c-0.2,0.5-0.5,0.9-0.9,1.3
					c-0.4,0.3-0.9,0.6-1.4,0.8s-1.1,0.3-1.7,0.4C28.1,111.3,27.9,111.3,27.7,111.3z M29.8,107.1c0-0.4-0.3-0.9-0.8-1.6
					c-0.5-0.6-1-1.2-1.6-1.8c-0.8,0.8-1.3,1.7-1.6,2.4c-0.1,0.3-0.1,0.5-0.1,0.8v0.1c0,0.2,0.1,0.3,0.2,0.4c0.1,0.1,0.3,0.2,0.5,0.3
					s0.4,0.1,0.7,0.2c0.2,0,0.4,0.1,0.6,0.1c0.8,0,1.4-0.2,1.8-0.5C29.7,107.4,29.8,107.3,29.8,107.1z"/>
				<path class="st3" d="M42.6,110.2c-1.1,0.8-2.6,1.1-4.2,1.1c-2,0-3.7-0.7-5.1-2.2l1.9-2.6c0.5,0.5,1.1,0.9,1.6,1.1
					c0.5,0.3,1.2,0.4,1.9,0.4c1,0,1.7-0.2,2.3-0.7c-0.4-0.9-1-2.3-1.8-4.1c-0.8-1.8-1.4-3.1-1.8-4l3-1.3l0.9,2.2
					c0.6,1.4,1.4,3.4,2.5,6c0,0,0.1,0.1,0.1,0.3s0.1,0.2,0.1,0.3c0,0,0.1,0.1,0.1,0.2c0.1,0.1,0.1,0.2,0.1,0.2c0,0,0.1,0.1,0.1,0.2
					c0.1,0.1,0.1,0.2,0.2,0.2c0.1,0,0.1,0.1,0.2,0.1s0.2,0.1,0.3,0.1s0.2,0,0.3,0.1c0.1,0,0.2,0,0.4,0c0.4,0,0.7,0.1,0.9,0.3
					c0.3,0.2,0.5,0.4,0.6,0.7c0.1,0.2,0.1,0.4,0.1,0.6c0,0.5-0.2,0.9-0.5,1.2c-0.3,0.3-0.7,0.5-1.2,0.5c-0.7,0-1.4-0.1-1.9-0.3
					C43.4,110.8,43,110.6,42.6,110.2z"/>
				<path class="st3" d="M44.1,109.7c0-0.5,0.2-0.9,0.5-1.2c0.3-0.3,0.7-0.5,1.2-0.5h28.6c0.7,0,1.2,0.3,1.5,1
					c0.1,0.2,0.1,0.4,0.1,0.6c0,0.5-0.2,0.9-0.5,1.2c-0.3,0.3-0.7,0.5-1.2,0.5H45.8c-0.4,0-0.7-0.1-0.9-0.3s-0.5-0.4-0.6-0.7
					C44.1,110.1,44.1,109.9,44.1,109.7z"/>
				<path class="st3" d="M78.8,110.3c-1,0.7-2.4,1-4.2,1h-0.2c-0.5,0-0.9-0.2-1.2-0.5c-0.3-0.3-0.5-0.7-0.5-1.2
					c0-0.5,0.2-0.9,0.5-1.2c0.3-0.3,0.7-0.5,1.2-0.5h0.2c1.9,0,2.9-0.6,2.9-1.9v-0.3c0-0.2-0.1-0.5-0.2-1c-0.1-0.3-0.2-0.6-0.3-1
					l3-0.7c0.4,1,0.5,2.1,0.5,3.1c0,0.5,0.1,0.9,0.3,1.3c0.2,0.4,0.5,0.6,0.9,0.6c0.7,0,1.2,0.3,1.5,1c0.1,0.2,0.1,0.4,0.1,0.6
					c0,0.5-0.2,0.9-0.5,1.2s-0.7,0.5-1.2,0.5C80.5,111.3,79.5,111,78.8,110.3z M78.5,101.4l-2.3-2.3l2.3-2.3l2.3,2.3L78.5,101.4z"/>
				<path class="st3" d="M80,109.7c0-0.5,0.2-0.9,0.5-1.2c0.3-0.3,0.7-0.5,1.2-0.5h6.8c0.7,0,1.2,0.3,1.5,1c0.1,0.2,0.1,0.4,0.1,0.6
					c0,0.5-0.2,0.9-0.5,1.2s-0.7,0.5-1.2,0.5h-6.8c-0.4,0-0.7-0.1-0.9-0.3s-0.5-0.4-0.6-0.7C80.1,110.1,80,109.9,80,109.7z"/>
				<path class="st3" d="M86.8,109.7c0-0.5,0.2-0.9,0.5-1.2s0.7-0.5,1.2-0.5h-0.6c0.7,0,1.2,0.3,1.5,1c0.1,0.2,0.1,0.4,0.1,0.6
					c0,0.5-0.2,0.9-0.5,1.2s-0.7,0.5-1.2,0.5h0.6c-0.4,0-0.7-0.1-0.9-0.3s-0.5-0.4-0.6-0.7C86.8,110.1,86.8,109.9,86.8,109.7z"/>
				<path class="st3" d="M86.1,109.7c0-0.5,0.2-0.9,0.5-1.2c0.3-0.3,0.7-0.5,1.2-0.5h-1.6c0.7,0,1.2,0.3,1.5,1
					c0.1,0.2,0.1,0.4,0.1,0.6c0,0.5-0.2,0.9-0.5,1.2s-0.7,0.5-1.2,0.5h1.6c-0.4,0-0.7-0.1-0.9-0.3s-0.5-0.4-0.6-0.7
					C86.2,110.1,86.1,109.9,86.1,109.7z"/>
				<path class="st3" d="M84.6,110.9c-0.3-0.3-0.5-0.7-0.5-1.2c0-0.5,0.2-0.9,0.5-1.2c0.3-0.3,0.7-0.5,1.2-0.5h1.6
					c1.2,0,2.3-0.1,3-0.4c0.2-0.1,0.4-0.2,0.6-0.3s0.2-0.3,0.2-0.6c0-0.3-0.1-0.6-0.2-1.1c-0.1-0.4-0.3-0.7-0.4-1.1
					s-0.4-0.8-0.6-1.3s-0.4-0.8-0.5-1l3-1.4c0.7,1.2,1.2,2.7,1.5,4.5c0.1,0.5,0.1,1,0.1,1.3c0,0.7-0.1,1.3-0.4,1.9
					c-0.6,1.3-1.6,2.1-3,2.5c-0.7,0.2-1.5,0.2-2.6,0.2h-2.3C85.3,111.3,84.9,111.2,84.6,110.9z"/>
				<path class="st3" d="M97,92.8c-0.1,0-0.2,0-0.3,0s-0.2,0.1-0.3,0.1s-0.1,0.1-0.2,0.1c0,0-0.1,0.1-0.2,0.2
					c-0.1,0.1-0.1,0.2-0.1,0.2c0,0-0.1,0.1-0.1,0.3c-0.1,0.1-0.1,0.2-0.1,0.3l-1.7-0.5c0-0.1,0-0.2,0.1-0.3c0-0.1,0.1-0.2,0.2-0.4
					c0.1-0.1,0.1-0.2,0.1-0.3c0.2-0.4,0.5-0.7,0.8-1c0.4-0.3,0.8-0.5,1.2-0.6c0.1,0,0.2,0,0.3,0h0.2c0.5,0,1,0.1,1.6,0.4l0.3,0.2
					c0.3,0.2,0.6,0.2,0.7,0.2c0.1,0,0.2,0,0.3-0.1c0.3-0.2,0.6-0.5,1-1l1.6,1c-0.2,0.3-0.4,0.7-0.9,1.1c-0.7,0.6-1.3,0.9-2,0.9h-0.1
					l-0.6-0.1c-0.6-0.3-1.1-0.5-1.4-0.6C97.3,92.8,97.1,92.8,97,92.8z M96.6,111.4c0.2-3,0.2-5.3,0.2-6.9c0-3.3-0.2-6.1-0.5-8.1
					l-0.1-0.8l3.2-1.1c0.1,0.2,0.1,0.4,0.1,0.7c0,0.2,0.1,0.5,0.1,0.6c0,0.2,0,0.4,0.1,0.7c0,0.3,0,0.6,0.1,0.7
					c0.2,2.2,0.3,4.7,0.3,7.3c0,2.2-0.1,4.3-0.2,6.4L96.6,111.4z"/>
			</g>
		</g>
		<g>
			<polygon class="st3" points="86.6,114.8 84.6,116.8 82.6,114.8 84.6,112.8 86.6,114.7 88.5,112.8 90.5,114.8 88.6,116.8 			"/>
		</g>
	</g>
</g>
</svg>
